<svg xmlns="http://www.w3.org/2000/svg" viewBox="0 0 880 280" width="880" height="280" font-family="Segoe UI, Roboto, Helvetica, Arial, sans-serif">
  <rect width="880" height="280" rx="12" fill="#15171b"/>
  <g transform="translate(20,22)">
    <rect width="24" height="24" rx="6" fill="#E23B3B"/>
    <text x="12" y="18" font-size="14" font-weight="800" fill="#fff" text-anchor="middle">Z</text>
    <text x="34" y="17" font-size="15" font-weight="700" fill="#f0f1f3">Evidencija prijavljenih alarma</text>
  </g>
  <!-- toolbar -->
  <g transform="translate(20,56)" font-size="11.5" font-weight="600">
    <rect width="74" height="28" rx="7" fill="#E23B3B"/>
    <text x="37" y="19" fill="#fff" text-anchor="middle">Kopiraj</text>
    <rect x="84" y="0" width="92" height="28" rx="7" fill="#23262c" stroke="#2f333a"/>
    <text x="130" y="19" fill="#c9cdd4" text-anchor="middle">Samo danas</text>
    <rect x="186" y="0" width="120" height="28" rx="7" fill="#23262c" stroke="#2f333a"/>
    <text x="246" y="19" fill="#c9cdd4" text-anchor="middle">Raspored dezurnih</text>
  </g>
  <!-- table header -->
  <g transform="translate(20,98)" font-size="10.5" font-weight="700" fill="#868b93">
    <text x="0" y="12">HOST</text>
    <text x="150" y="12">PROBLEM</text>
    <text x="360" y="12">DATUM</text>
    <text x="450" y="12">VREME</text>
    <text x="520" y="12">KO JE OBAVESTEN</text>
    <text x="730" y="12">ANALITICAR</text>
  </g>
  <line x1="20" y1="116" x2="860" y2="116" stroke="#2a2e34"/>
  <g transform="translate(20,124)" font-size="12" fill="#e9eaec">
    <g>
      <rect x="-6" y="0" width="852" height="34" rx="6" fill="rgba(226,59,59,0.07)"/>
      <text x="0" y="22">srv-db-03</text>
      <text x="150" y="22">Disk space &gt;= 95%</text>
      <text x="360" y="22">6/2/2026</text>
      <text x="450" y="22">02:14</text>
      <text x="520" y="22">Ime Prezime</text>
      <text x="730" y="22">Analiticar A</text>
    </g>
    <g transform="translate(0,40)">
      <text x="0" y="22">app-node-7</text>
      <text x="150" y="22">Not running</text>
      <text x="360" y="22">6/2/2026</text>
      <text x="450" y="22">09:31</text>
      <text x="520" y="22" fill="#868b93">u radno vreme</text>
      <text x="730" y="22">Analiticar A</text>
    </g>
    <g transform="translate(0,80)">
      <text x="0" y="22">net-core-02</text>
      <text x="150" y="22">Interface down</text>
      <text x="360" y="22">6/2/2026</text>
      <text x="450" y="22">11:05</text>
      <text x="520" y="22" fill="#868b93">u radno vreme</text>
      <text x="730" y="22">Analiticar B</text>
    </g>
  </g>
</svg>
