<svg xmlns="http://www.w3.org/2000/svg" viewBox="0 0 360 470" width="360" height="470" font-family="Segoe UI, Roboto, Helvetica, Arial, sans-serif">
  <rect width="360" height="470" rx="14" fill="#15171b"/>
  <rect x="0" y="0" width="360" height="56" rx="14" fill="#1c1f24"/>
  <rect x="0" y="40" width="360" height="16" fill="#1c1f24"/>
  <g transform="translate(18,14)">
    <rect width="28" height="28" rx="7" fill="#E23B3B"/>
    <text x="14" y="21" font-size="17" font-weight="800" fill="#fff" text-anchor="middle">Z</text>
    <text x="40" y="20" font-size="15" font-weight="700" fill="#f0f1f3">Zabbix SOC Filter</text>
  </g>
  <!-- location badge -->
  <g transform="translate(18,70)">
    <rect width="324" height="34" rx="8" fill="rgba(109,217,154,0.12)" stroke="rgba(109,217,154,0.4)"/>
    <circle cx="20" cy="17" r="5" fill="#6dd99a"/>
    <text x="36" y="22" font-size="13" font-weight="600" fill="#6dd99a">Rad od kuce</text>
  </g>
  <!-- toggle rows -->
  <g transform="translate(18,118)" font-size="13.5">
    <g>
      <rect width="324" height="50" rx="9" fill="#1e2126"/>
      <text x="16" y="24" font-weight="700" fill="#f0f1f3">Fokus mode</text>
      <text x="16" y="40" font-size="11" fill="#868b93">Prikazi samo alarme za klijenta</text>
      <rect x="276" y="14" width="34" height="20" rx="10" fill="#E23B3B"/>
      <circle cx="300" cy="24" r="8" fill="#fff"/>
    </g>
    <g transform="translate(0,60)">
      <rect width="324" height="50" rx="9" fill="#1e2126"/>
      <text x="16" y="24" font-weight="700" fill="#f0f1f3">Zvuk za nove alarme</text>
      <text x="16" y="40" font-size="11" fill="#868b93">Jacina 30%</text>
      <rect x="276" y="14" width="34" height="20" rx="10" fill="#E23B3B"/>
      <circle cx="300" cy="24" r="8" fill="#fff"/>
    </g>
    <g transform="translate(0,120)">
      <rect width="324" height="50" rx="9" fill="#1e2126"/>
      <text x="16" y="24" font-weight="700" fill="#f0f1f3">Push notifikacije</text>
      <text x="16" y="40" font-size="11" fill="#868b93">Desktop obavestenja</text>
      <rect x="276" y="14" width="34" height="20" rx="10" fill="#3a3f47"/>
      <circle cx="290" cy="24" r="8" fill="#cfd3da"/>
    </g>
  </g>
  <!-- shortcut buttons -->
  <g transform="translate(18,310)" font-size="13" font-weight="600">
    <rect width="324" height="38" rx="8" fill="#E23B3B"/>
    <text x="162" y="24" fill="#fff" text-anchor="middle">Evidencija prijavljenih alarma</text>
    <rect y="48" width="324" height="38" rx="8" fill="#23262c" stroke="#2f333a"/>
    <text x="162" y="72" fill="#e9eaec" text-anchor="middle">Registar prijavljenih alarma</text>
    <rect y="96" width="324" height="38" rx="8" fill="#23262c" stroke="#2f333a"/>
    <text x="162" y="120" fill="#e9eaec" text-anchor="middle">Spisak dezurnih DCCPT</text>
  </g>
</svg>
